<svg xmlns="http://www.w3.org/2000/svg" viewBox="0 0 24 24" fill="none" stroke="currentColor" stroke-width="1.75" stroke-linecap="round" stroke-linejoin="round"><title>Admin</title><circle cx="12" cy="12" r="3"/><path d="M19.4 15a1 1 0 0 0 .2 1.1l.1.1-1.4 2.4-.1-.1a1 1 0 0 0-1.1-.2 8.8 8.8 0 0 1-1.6.7 1 1 0 0 0-.7.9V21h-2.8v-.1a1 1 0 0 0-.7-.9 8.8 8.8 0 0 1-1.6-.7 1 1 0 0 0-1.1.2l-.1.1L4.7 16l.1-.1a1 1 0 0 0 .2-1.1 8.8 8.8 0 0 1-.3-1.7 1 1 0 0 0-.9-.7H3v-2.8h.1a1 1 0 0 0 .9-.7 8.8 8.8 0 0 1 .3-1.7 1 1 0 0 0-.2-1.1l-.1-.1L4.7 4.7l.1.1a1 1 0 0 0 1.1.2 8.8 8.8 0 0 1 1.6-.7 1 1 0 0 0 .7-.9V3h2.8v.1a1 1 0 0 0 .7.9 8.8 8.8 0 0 1 1.6.7 1 1 0 0 0 1.1-.2l.1-.1L19.3 8l-.1.1a1 1 0 0 0-.2 1.1 8.8 8.8 0 0 1 .3 1.7 1 1 0 0 0 .9.7H21V15h-.1a1 1 0 0 0-.9.7 8.8 8.8 0 0 1-.3 1.7z"/></svg>